<svg xmlns="http://www.w3.org/2000/svg" width="300" height="55" viewBox="0 0 298 55"><path style="stroke:none;fill-rule:nonzero;fill:#000;fill-opacity:1" d="M82.008 32.3c-.23-.605-.344-1.437-.344-2.503 0-1.067.363-4.227 1.09-9.48.726-5.235 1.09-9.442 1.09-12.622 0-.746-.051-1.765-.156-3.062 1.878.105 3.058.55 3.535 1.332.25.46.41.894.48 1.305.07.406.106 1.054.106 1.945 0 .867-.399 4.18-1.196 9.93-.816 5.753-1.234 9.851-1.25 12.304.121-.039.344-.054.664-.054 5.375 0 9.375-.372 12-1.118-.175 1.438-.664 2.555-1.465 3.356-.816.797-1.824 1.195-3.03 1.195-.356 0-1.43-.078-3.22-.238a59.558 59.558 0 0 0-5.242-.238c-1.687 0-3.379.16-5.082.476.336-1.098 1.012-1.941 2.02-2.527Zm24.508-12.355a18.07 18.07 0 0 0-1.649 3.832c-.39 1.297-.586 2.547-.586 3.758 0 1.188.266 2.2.797 3.035.531.832 1.297 1.25 2.29 1.25 1.402 0 2.702-.761 3.91-2.289 1.226-1.547 2.163-3.398 2.82-5.566.656-2.184.984-4.2.984-6.043 0-1.848-.07-3.367-.21-4.555.585-.055.956-.078 1.116-.078 2.11 0 3.164 1.082 3.164 3.246 0 .461-.3 2.38-.902 5.754-.586 3.371-.879 6.07-.879 8.094 0 2.023.383 3.816 1.145 5.379-1.563-.32-2.696-1.012-3.407-2.078-.71-1.047-1.062-2.563-1.062-4.551 0-.356.05-1.031.16-2.028-.676 2.364-1.855 4.262-3.539 5.7-1.703 1.457-3.363 2.183-4.977 2.183-1.632 0-2.945-.62-3.937-1.863-.996-1.227-1.492-2.922-1.492-5.086 0-2.184.41-4.312 1.226-6.39a14.095 14.095 0 0 1 3.645-5.38c1.613-1.527 3.43-2.289 5.453-2.289.871 0 1.828.176 2.875.532a10.49 10.49 0 0 0-4.047 2.05c-1.203.997-2.172 2.122-2.898 3.383ZM144.008 8.63l.023.453c0 .938-.351 4.027-1.062 9.266-.711 5.218-1.067 9.586-1.067 13.101 0 1.559.082 2.778.243 3.645-.606.054-.934.082-.985.082-1.117 0-1.953-.258-2.504-.774-.531-.515-.797-1.347-.797-2.504 0-1.152.418-4.683 1.25-10.597.817-5.89 1.227-10.098 1.227-12.621 0-2.52-.172-4.172-.508-4.953.8.109 1.535.418 2.211.933.691.496 1.203 1.172 1.543 2.024 1.898-1.012 4.008-1.52 6.332-1.52 2.305 0 4.125.711 5.453 2.133 1.332 1.437 1.996 3.195 1.996 5.273 0 2.66-.965 5.059-2.898 7.188-1.934 2.113-4.543 3.168-7.824 3.168-.746 0-1.43-.043-2.051-.133l-.106-1.2c1.668 0 3.121-.245 4.364-.741 1.242-.5 2.183-1.157 2.82-1.973 1.262-1.598 1.89-3.461 1.89-5.59 0-1.547-.488-2.832-1.464-3.863-.973-1.028-2.395-1.543-4.258-1.543-1.117 0-2.395.246-3.828.746Zm21.605 11.316a17.055 17.055 0 0 0-1.675 3.832c-.375 1.297-.563 2.547-.563 3.758 0 1.188.27 2.2.8 3.035.532.832 1.294 1.25 2.29 1.25 1.383 0 2.687-.761 3.91-2.289 1.207-1.547 2.137-3.398 2.793-5.566.676-2.184 1.012-4.2 1.012-6.043 0-1.848-.078-3.367-.239-4.555.602-.055.973-.078 1.118-.078 2.109 0 3.164 1.082 3.164 3.246 0 .461-.293 2.38-.875 5.754-.606 3.371-.907 6.07-.907 8.094 0 2.023.383 3.816 1.145 5.379-1.563-.32-2.695-1.012-3.406-2.078-.711-1.047-1.063-2.563-1.063-4.551 0-.356.051-1.031.156-2.028-.671 2.364-1.851 4.262-3.539 5.7-1.683 1.457-3.343 2.183-4.972 2.183-1.633 0-2.946-.62-3.938-1.863-.996-1.227-1.492-2.922-1.492-5.086 0-2.184.41-4.312 1.223-6.39a14.149 14.149 0 0 1 3.648-5.38c1.629-1.527 3.45-2.289 5.453-2.289.871 0 1.828.176 2.875.532a10.248 10.248 0 0 0-4.02 2.05c-1.222.997-2.19 2.122-2.898 3.383Zm35.625-1.625c0 1.137-.238 3.153-.715 6.043-.48 2.895-.718 5.008-.718 6.34 0 1.313.16 2.262.476 2.848.32.586.871 1.082 1.653 1.492-.34.035-.801.05-1.387.05-1.684 0-2.883-.316-3.59-.956-.71-.64-1.066-1.774-1.066-3.407 0-.925.25-2.78.746-5.566.496-2.805.746-4.863.746-6.18 0-1.632-.496-2.449-1.492-2.449-1.594 0-3.246 1.402-4.95 4.207-1.703 2.805-2.554 6.188-2.554 10.145 0 1.562.082 2.781.242 3.648-.656.055-1.047.082-1.172.082-2.184 0-3.273-1.074-3.273-3.222 0-.497.265-2.407.8-5.727.512-3.336.77-5.988.77-7.961 0-1.988-.211-3.809-.637-5.457 1.473.566 2.5 1.375 3.086 2.422.586 1.066.879 2.273.879 3.621 0 1.348-.152 2.922-.453 4.715.816-2.805 2.101-5.168 3.855-7.086 1.739-1.934 3.371-2.902 4.899-2.902 2.57 0 3.855 1.77 3.855 5.3Zm17.856-4.207c0 1.028-.196 1.75-.586 2.157-.406.39-.992.585-1.754.585h-2.688c-.109.657-.363 2.204-.773 4.633-.852 4.617-1.277 8.106-1.277 10.465 0 2.363.18 3.934.53 4.715-1.417-.535-2.429-1.324-3.03-2.371-.586-1.067-.88-2.352-.88-3.86 0-1.527.09-2.964.266-4.316.196-1.348.461-2.93.801-4.738.352-1.828.602-3.285.742-4.367a15.487 15.487 0 0 0-4.175 1.199c-.036-.41-.055-.774-.055-1.094 0-1.187.39-1.988 1.172-2.394.797-.41 1.941-.614 3.433-.614.176-1.847.266-3.222.266-4.129 0-.902-.008-1.632-.027-2.183V6.578c1.136.176 2.011.684 2.632 1.516.621.816.934 1.953.934 3.41 0 .746-.063 1.648-.188 2.715 2.165 0 3.692-.364 4.579-1.09.05.355.078.684.078.984Zm7 8.895c.812-2.805 2.074-5.168 3.777-7.086 1.703-1.934 3.3-2.902 4.79-2.902 1.487 0 2.546.453 3.167 1.359.617.906.93 2.14.93 3.703 0 1.543-.238 3.719-.719 6.523-.48 2.82-.719 4.872-.719 6.149 0 1.281.16 2.21.48 2.797.317.586.86 1.082 1.622 1.492-.317.035-.77.05-1.356.05-1.597 0-2.777-.327-3.539-.984-.746-.656-1.117-1.78-1.117-3.379 0-.925.246-2.78.746-5.566.496-2.805.742-4.863.742-6.18 0-1.632-.574-2.449-1.726-2.449-.676 0-1.422.356-2.238 1.067-.817.691-1.606 1.64-2.368 2.847-.746 1.207-1.375 2.742-1.89 4.61-.512 1.843-.77 3.664-.77 5.457 0 1.812.078 3.152.239 4.02-.602.054-.938.081-1.012.081-1.168 0-2.031-.25-2.578-.746-.57-.496-.852-1.277-.852-2.344 0-1.047.219-3.078.664-6.097 1.313-9.25 1.969-16.27 1.969-21.063 0-2.164-.14-3.62-.426-4.367 1.438.531 2.45 1.305 3.035 2.316.582 1.032.875 2.434.875 4.207 0 1.243-.246 3.852-.742 7.829-.48 3.976-.808 6.863-.984 8.656Zm28.176-8.043c-1.489 0-2.75.851-3.778 2.555-1.047 1.722-1.738 3.738-2.074 6.046h1.035c1.313 0 2.457-.187 3.434-.558.957-.375 1.703-.852 2.234-1.438.992-1.156 1.492-2.453 1.492-3.89 0-.817-.195-1.473-.586-1.97-.39-.495-.976-.745-1.757-.745Zm5.242 15.098c-1.137 1.863-2.387 3.167-3.75 3.914-1.367.746-2.953 1.117-4.766 1.117-1.789 0-3.36-.797-4.707-2.395-1.348-1.578-2.023-3.816-2.023-6.71 0-3.286.886-6.212 2.66-8.786.87-1.242 2.004-2.258 3.406-3.035 1.402-.766 2.945-1.148 4.629-1.148 3.726 0 5.59 1.804 5.59 5.406 0 2.168-.836 3.863-2.504 5.086-1.684 1.226-3.625 1.84-5.824 1.84-1.473 0-2.797-.137-3.965-.403-.02.25-.028.633-.028 1.145 0 4.402 1.305 6.605 3.91 6.605 2.45 0 4.446-1.215 5.989-3.648.922.125 1.383.46 1.383 1.012Zm-.746-19.836c-.016.265-.149.523-.399.77-.23.23-.496.382-.797.452-.886-1.117-2.03-2.219-3.433-3.3-1.403-1.102-2.828-1.876-4.285-2.317.054-1.297.656-2.316 1.812-3.062 1.313.515 2.668 1.542 4.07 3.09 1.403 1.527 2.41 2.98 3.032 4.367Zm10.992 12.195c.887-3.23 1.957-5.61 3.219-7.137 1.257-1.527 2.43-2.289 3.511-2.289 1.082 0 1.89.399 2.422 1.195.55.817.824 1.848.824 3.09 0 1.242-.32 2.317-.957 3.223-.656.906-1.605 1.36-2.847 1.36-.39 0-.703-.028-.934-.083.852-1.222 1.277-2.468 1.277-3.726 0-.887-.363-1.332-1.09-1.332-.566 0-1.171.328-1.808.984-.656.676-1.277 1.605-1.863 2.797-.602 1.207-1.098 2.762-1.489 4.66-.41 1.918-.613 3.984-.613 6.203 0 .25.063 1.305.188 3.168-.641.055-1.012.082-1.118.082-2.183 0-3.273-1.074-3.273-3.222 0-.497.266-2.407.797-5.727.516-3.336.773-5.988.773-7.961 0-1.988-.214-3.809-.64-5.457 1.472.566 2.5 1.375 3.086 2.422.586 1.066.879 2.3.879 3.703 0 1.402-.114 2.75-.344 4.047Zm21.949-7.457c-1.488 0-2.758.851-3.805 2.555-1.027 1.722-1.71 3.738-2.047 6.046h1.036c1.312 0 2.457-.187 3.433-.558.957-.375 1.703-.852 2.235-1.438.992-1.156 1.492-2.453 1.492-3.89 0-.817-.196-1.473-.586-1.97-.39-.495-.977-.745-1.758-.745Zm5.242 15.098c-1.137 1.863-2.387 3.167-3.75 3.914-1.367.746-2.953 1.117-4.765 1.117-1.79 0-3.36-.797-4.707-2.395-1.348-1.578-2.024-3.816-2.024-6.71 0-3.286.887-6.212 2.66-8.786.871-1.242 2.004-2.258 3.407-3.035 1.402-.766 2.945-1.148 4.628-1.148 3.727 0 5.59 1.804 5.59 5.406 0 2.168-.836 3.863-2.504 5.086-1.683 1.226-3.625 1.84-5.824 1.84-1.473 0-2.797-.137-3.965-.403-.02.25-.027.633-.027 1.145 0 4.402 1.305 6.605 3.91 6.605 2.45 0 4.445-1.215 5.988-3.648.922.125 1.383.46 1.383 1.012Zm0 0"/><path style="stroke:none;fill-rule:nonzero;fill:#1d1d1b;fill-opacity:1" d="M29.848 25.086v-.05a4.235 4.235 0 0 0-2.602-2.013h-.101a8.521 8.521 0 0 0-1.848-.347 11.506 11.506 0 0 1-4.754-1.762.553.553 0 0 0-.742.164.557.557 0 0 0 .12.754c.477.305.97.578 1.481.82 0 .075-.066.149-.09.23a4.508 4.508 0 0 0 3.067 5.555c.43.122.871.184 1.316.184a4.356 4.356 0 0 0 3.465-1.687c.063.742.02 1.492-.133 2.218a.561.561 0 0 0 .348.742.662.662 0 0 0 .176 0c.238 0 .449-.152.527-.378.235-.993.293-2.02.168-3.032a3.645 3.645 0 0 0-.398-1.398Zm-3.305-1.102a.904.904 0 0 1 0 .383.969.969 0 1 1-1.867-.523.766.766 0 0 1 .066-.125l.442.05c.464.036.925.11 1.375.223Zm.695 3.145a3.454 3.454 0 0 1-2.57.234 3.391 3.391 0 0 1-2.32-4.191v-.09c.41.16.828.293 1.254.406v.043a2.072 2.072 0 0 0 2.672 2.578 2.066 2.066 0 0 0 1.355-1.71c.445.222.82.562 1.094.976a3.174 3.174 0 0 1-1.47 1.754Zm20.028-4.262c0-.082-.059-.148-.09-.23a12.173 12.173 0 0 0 1.48-.82.548.548 0 0 0 .121-.75.554.554 0 0 0-.742-.169 11.506 11.506 0 0 1-4.754 1.762 8.625 8.625 0 0 0-1.86.348h-.089a4.241 4.241 0 0 0-2.617 2.027v.035c-.23.45-.367.942-.399 1.442a8.53 8.53 0 0 0 .172 3.035.552.552 0 0 0 .524.375.547.547 0 0 0 .457-.23.539.539 0 0 0 .074-.508 7.562 7.562 0 0 1-.14-2.22 4.373 4.373 0 0 0 3.464 1.688c.446 0 .89-.062 1.317-.187a4.499 4.499 0 0 0 3.082-5.598Zm-3.918.903.445-.051c.023.039.047.082.066.125a.966.966 0 0 1-1.55.996.943.943 0 0 1-.313-.856c.445-.109.902-.183 1.36-.214Zm.543 3.593a3.462 3.462 0 0 1-2.575-.234 3.175 3.175 0 0 1-1.476-1.762 2.842 2.842 0 0 1 1.094-.969c.011.094.027.184.05.274a2.073 2.073 0 0 0 1.989 1.48 2.078 2.078 0 0 0 1.609-.824c.379-.508.508-1.16.348-1.773v-.043c.425-.114.847-.25 1.258-.407v.086a3.397 3.397 0 0 1-2.297 4.172Zm0 0"/><path style="stroke:none;fill-rule:nonzero;fill:#1d1d1b;fill-opacity:1" d="M31.57 24.215c-.117-1.664-1.48-2.723-3.804-2.902a8.537 8.537 0 0 1-3.461-1.25.559.559 0 0 0-.77.156.557.557 0 0 0 .156.77 9.557 9.557 0 0 0 3.993 1.429c.996.07 2.68.418 2.785 1.871.02.29.261.516.554.516h.036a.556.556 0 0 0 .511-.59Zm9.59-1.797a9.557 9.557 0 0 0 3.992-1.43.557.557 0 0 0 .157-.77.559.559 0 0 0-.77-.155 8.57 8.57 0 0 1-3.465 1.273c-2.3.18-3.695 1.234-3.808 2.898a.572.572 0 0 0 .136.407c.098.109.235.175.383.187h.035a.556.556 0 0 0 .555-.52c.105-1.492 1.82-1.812 2.785-1.89Zm-18.23-3.855a.556.556 0 1 0 .86-.704l-2.36-2.898a.55.55 0 0 0-.524-.207.536.536 0 0 0-.433.355.551.551 0 0 0 .101.555Zm2.484-1.606a.552.552 0 0 0 1.035-.383l-1.043-2.722a.553.553 0 0 0-.715-.317c-.289.11-.43.43-.32.715Zm2.957.082c.29 0 .531-.223.555-.508l.183-2.355a.542.542 0 0 0-.132-.403.547.547 0 0 0-.38-.195.538.538 0 0 0-.406.129.544.544 0 0 0-.191.383l-.184 2.36a.54.54 0 0 0 .149.413.55.55 0 0 0 .406.176Zm0 0"/><path style="stroke:none;fill-rule:nonzero;fill:#1d1d1b;fill-opacity:1" d="M67.766 36.129c-2.883-.918-9.668-.836-15.18-.586 3.695-4.668 3.695-9.176 3.039-11.3-.504-1.59-1.281-5.598-.29-7.161.185-.316.509-.527.872-.566 1.3-.172 1.54-1.524 1.723-2.606a6.3 6.3 0 0 1 .258-1.137c.222-.398.53-.746.902-1.015a7.838 7.838 0 0 0 2.351-3.125c1.172-2.895-.402-4.32-.468-4.38a.484.484 0 0 0-.207-.097h-.102a4.55 4.55 0 0 0-3.555.54c-.504.245-1.125.542-2.039.925a5.08 5.08 0 0 1-5.914-.976C45.832 1.449 43.488.527 34.32.527c-9.172 0-11.484.93-14.78 4.118a5.08 5.08 0 0 1-5.915.976 39.781 39.781 0 0 1-2.04-.926 4.545 4.545 0 0 0-3.554-.539H7.93a.531.531 0 0 0-.207.098c-.067.059-1.641 1.476-.465 4.379a7.793 7.793 0 0 0 2.347 3.125c.372.27.68.617.903 1.015.078.383.12.774.125 1.168.187 1.086.414 2.434 1.722 2.602.364.043.688.254.872.57.992 1.563.214 5.57-.286 7.16-.675 2.122-.644 6.657 3.036 11.301-5.512-.254-12.297-.336-15.18.582a.553.553 0 0 0-.356.7.553.553 0 0 0 .696.359c3.023-.961 11.086-.738 15.652-.488h.184l.48.511c-5.672.078-9.523.473-11.453 1.168a.552.552 0 0 0-.18.953.558.558 0 0 0 .559.09c1.906-.687 6.133-1.074 12.234-1.117.262.223.528.434.793.648-4.781.27-12.562.895-15.52 2.22a.557.557 0 0 0 .445 1.016c3.08-1.357 11.958-1.954 16.419-2.185l.738.535.075.051c-4.649.45-7.825 1.035-9.45 1.746a.554.554 0 0 0 .442 1.012c1.53-.672 4.765-1.25 9.402-1.688a14.644 14.644 0 0 0 .5 4.055c1.207 3.196 2.852 3.977 4.773 4.14.278.52.66.977 1.125 1.34a11.094 11.094 0 0 0-2.503 3.305.555.555 0 0 0 .316.72.555.555 0 0 0 .715-.321c.199-.516.8-1.477 2.433-3.098.473.242.97.434 1.477.578a8.409 8.409 0 0 0-.68 2.535.558.558 0 0 0 .523.586c.298 0 .54-.23.555-.527a7.578 7.578 0 0 1 .676-2.344 14.75 14.75 0 0 0 4.832 0c.344.742.57 1.532.672 2.344a.554.554 0 0 0 .555.527.558.558 0 0 0 .523-.586 8.306 8.306 0 0 0-.656-2.543 8.098 8.098 0 0 0 1.477-.578c1.632 1.621 2.218 2.582 2.433 3.098.11.285.43.43.715.32a.555.555 0 0 0 .316-.718 11.193 11.193 0 0 0-2.504-3.305c.465-.363.848-.82 1.125-1.34 1.918-.164 3.567-.938 4.766-4.133.344-1.316.508-2.672.48-4.031 4.633.437 7.876 1.012 9.399 1.687a.56.56 0 0 0 .578-.035.548.548 0 0 0 .23-.531.554.554 0 0 0-.363-.45c-1.64-.737-4.879-1.308-9.61-1.757l.595-.414.226-.164c4.434.223 13.45.82 16.57 2.219a.554.554 0 0 0 .441-1.012c-2.999-1.317-10.796-1.938-15.57-2.219.282-.215.555-.43.821-.652 6.121.035 10.348.422 12.262 1.117a.553.553 0 0 0 .375-1.043c-1.922-.695-5.77-1.086-11.453-1.168l.48-.512h.184c4.547-.23 12.629-.472 15.652.489a.592.592 0 0 0 .742-.395.592.592 0 0 0-.394-.742Zm-31.04 13.984a.552.552 0 0 0-.757-.203.558.558 0 0 0-.203.758c.12.2.289.516.472.887a13.563 13.563 0 0 1-3.855 0c.258-.528.465-.88.472-.887a.555.555 0 0 0-.96-.555c0 .043-.31.54-.645 1.227a5.189 5.189 0 0 1-2.645-1.48h1.797a4.424 4.424 0 0 0 3.88-2.32 4.435 4.435 0 0 0 3.91 2.312h1.796a5.184 5.184 0 0 1-2.648 1.48c-.332-.664-.613-1.152-.64-1.207Zm12.637-12.765-.058.043a25.344 25.344 0 0 1-1.98 1.48h-.575c.094-1.266.332-2.402.79-2.742a.566.566 0 0 0-.696-.89c-.739.616-1.063 1.952-1.203 3.574h-.453a.526.526 0 0 0-.399.148.529.529 0 0 0-.168.39.557.557 0 0 0 .54.57h.413v.548h-.133a.557.557 0 0 0-.597.504c-.028.3.195.57.5.597h.156a14.841 14.841 0 0 1-.414 3.735c-1.043 2.773-2.29 3.36-4.102 3.445h-2.793a3.354 3.354 0 0 1-3.347-3.297c.258-.242.547-.453.855-.621.742-.473 1.828-1.125 1.426-2.062-.137-.329-.043-.48 1.23-1.348l.465-.317a1.84 1.84 0 0 0 .961-1.48 1.541 1.541 0 0 0-.703-1.184.543.543 0 0 0-.738.164.557.557 0 0 0 .152.739c.063.047.196.172.203.273.004.106-.129.305-.488.555l-.46.32c-1.204.813-2.15 1.477-1.626 2.637-.059.187-.656.55-.98.742-.293.172-.57.36-.836.57a7.515 7.515 0 0 0-.836-.57 5.927 5.927 0 0 1-.985-.687c.528-1.235-.425-1.88-1.625-2.7l-.457-.32c-.355-.25-.488-.45-.488-.555 0-.101.133-.226.191-.273.239-.172.301-.5.145-.75a.554.554 0 0 0-.742-.18c-.406.262-.668.7-.703 1.184.047.625.41 1.18.96 1.476l.465.32c1.282.864 1.368 1.02 1.227 1.344-.398.95.66 1.59 1.43 2.063.297.172.582.363.855.57a3.358 3.358 0 0 1-3.355 3.344h-1.153c-2.75.066-4.433.102-5.75-3.445a15.023 15.023 0 0 1-.414-3.735h.157a.563.563 0 0 0 .507-.605.557.557 0 0 0-.605-.504h-.102v-.547h.414a.554.554 0 1 0 0-1.11h-.453c-.14-1.62-.425-2.96-1.203-3.574a.604.604 0 0 0-.851.09.61.61 0 0 0 .09.852c.456.36.671 1.476.785 2.742h-.704a28.57 28.57 0 0 1-1.832-1.48.47.47 0 0 0-.113-.102c-.191-.172-.383-.34-.558-.512l1.718.114h.047a.555.555 0 0 0 .574-.536.549.549 0 0 0-.53-.574s-1.161-.09-2.958-.187c-4.02-4.578-4.121-9.02-3.484-11.032 0-.062 1.719-5.636.168-8.085a2.26 2.26 0 0 0-1.625-1.055c-.457-.063-.606-.742-.739-1.695a6.764 6.764 0 0 0-.328-1.36 3.952 3.952 0 0 0-1.203-1.445A6.633 6.633 0 0 1 8.187 8.21c-.738-1.746-.167-2.707.075-3.02a2.368 2.368 0 0 1 1.531.399c.05.047 5.555 4.082 7.973 4.082h.257c-2.214 1.594-3.515 3.625-3.515 5.613a.552.552 0 1 0 1.105 0c0-2.078 1.922-4.355 4.903-5.812a10.05 10.05 0 0 0 3.308-1.102.559.559 0 0 0 .297-.476.568.568 0 0 0-.273-.493.557.557 0 0 0-.563 0A11.427 11.427 0 0 1 17.7 8.57c-.926 0-2.691-.894-4.332-1.883a6.136 6.136 0 0 0 6.875-1.28c2.953-2.825 4.793-3.81 14.04-3.81 9.245 0 11.085.993 14.042 3.81a6.018 6.018 0 0 0 4.262 1.812 7.174 7.174 0 0 0 2.543-.504c-1.633.984-3.399 1.87-4.316 1.87-1.93.09-3.852-.312-5.586-1.167a.554.554 0 0 0-.54.969c1.036.562 2.165.941 3.333 1.117 2.957 1.48 4.898 3.7 4.898 5.812a.554.554 0 1 0 1.11 0c0-1.996-1.31-4.03-3.516-5.613h.324c2.414 0 7.922-4.039 7.973-4.082a2.34 2.34 0 0 1 1.523-.398c.242.316.773 1.277.074 3.015a6.653 6.653 0 0 1-2.054 2.715 3.989 3.989 0 0 0-1.207 1.442 7.069 7.069 0 0 0-.325 1.363c-.168.98-.308 1.633-.738 1.691-.687.086-1.3.48-1.664 1.074-1.559 2.446.148 8.032.172 8.082.64 2.02.531 6.465-3.488 11.036-1.766.093-2.957.183-2.957.183a.555.555 0 1 0 .046 1.11h.043l1.723-.11c-.156.168-.387.348-.594.524Zm0 0"/><path style="stroke:none;fill-rule:nonzero;fill:#1d1d1b;fill-opacity:1" d="M45.195 18.77a.556.556 0 0 0 .43-.207l2.36-2.899a.57.57 0 0 0 .1-.555.547.547 0 0 0-.437-.355.553.553 0 0 0-.523.207l-2.355 2.898a.552.552 0 0 0 .426.902Zm-2.734-1.493a.569.569 0 0 0 .2 0c.23 0 .437-.14.519-.355l1.043-2.723a.555.555 0 1 0-1.035-.398l-1.043 2.722a.552.552 0 0 0 .316.754Zm-2.266-.23a.575.575 0 0 0 .38-.192.571.571 0 0 0 .128-.406l-.183-2.36a.556.556 0 1 0-1.11.087l.184 2.36a.563.563 0 0 0 .195.382c.113.094.258.14.406.129ZM26.285 42.664a.776.776 0 1 1-1.55 0 .776.776 0 1 1 1.55 0ZM26.543 45.305a.776.776 0 1 1-1.55 0 .776.776 0 1 1 1.55 0ZM28.57 47.043a.777.777 0 1 1-1.553 0 .777.777 0 0 1 1.553 0ZM29.25 44.344c0 .43-.348.777-.777.777a.774.774 0 0 1-.774-.777.777.777 0 1 1 1.55 0ZM31.406 45.703a.776.776 0 1 1-1.552.003.776.776 0 0 1 1.552-.003ZM43.828 42.664a.776.776 0 1 1-1.55 0 .776.776 0 1 1 1.55 0ZM43.57 45.305a.776.776 0 1 1-1.55 0 .776.776 0 1 1 1.55 0ZM41.547 47.043c0 .43-.348.777-.777.777a.774.774 0 0 1-.774-.777.777.777 0 1 1 1.55 0ZM40.867 44.344a.777.777 0 1 1-1.554 0 .777.777 0 0 1 1.554 0ZM38.707 45.703a.776.776 0 1 1-1.552.003.776.776 0 0 1 1.552-.003ZM36.914 29.84a.552.552 0 0 0-.406.133.547.547 0 0 0-.196.379 6.792 6.792 0 0 1-2.03 3.984 6.748 6.748 0 0 1-2.016-3.992.562.562 0 0 0-.602-.512.56.56 0 0 0-.508.602 8.127 8.127 0 0 0 2.758 5.074.579.579 0 0 0 .344.125.58.58 0 0 0 .347-.125 8.146 8.146 0 0 0 2.758-5.074.559.559 0 0 0-.449-.594Zm-9.75 2a.55.55 0 0 0-.738.2c-.149.257-.34.53-.54.82-.988 1.433-2.484 3.609-.374 5.913.21.18.523.176.726-.011a.556.556 0 0 0 .086-.727c-1.398-1.515-.687-2.824.473-4.512.215-.316.422-.613.582-.894a.536.536 0 0 0 .066-.441.535.535 0 0 0-.28-.348Zm15.016.2a.548.548 0 0 0-.754-.204.552.552 0 0 0-.203.758c.16.281.367.574.582.894 1.16 1.684 1.87 2.992.472 4.512a.555.555 0 0 0-.18.566.555.555 0 0 0 .993.172c2.105-2.285.613-4.437-.375-5.918a9.904 9.904 0 0 1-.535-.78Zm-13.89 7.046a.555.555 0 1 0-1.06-.34 3.055 3.055 0 0 0 1.415 3.563.553.553 0 0 0 .757-.204.558.558 0 0 0-.203-.757 1.934 1.934 0 0 1-.91-2.262Zm11.624 3.203a3.06 3.06 0 0 0 1.41-3.566.555.555 0 1 0-1.054.34 1.946 1.946 0 0 1-.91 2.242.555.555 0 0 0 .554.96Zm-3.504-3.094a2.83 2.83 0 0 1-4.265 0 .567.567 0 0 0-.856.742 3.941 3.941 0 0 0 5.973 0 .569.569 0 0 0-.86-.742ZM19.88 28.375a.566.566 0 0 0-.582-.02c-.18.106-.29.301-.277.512a.544.544 0 0 0 .328.477c1.941 1.074 2.785 2.656 2.785 3.226a.554.554 0 1 0 1.11 0c0-1.148-1.259-3.03-3.364-4.195Zm29.617.223a.554.554 0 0 0-.738-.223c-2.121 1.164-3.39 3.047-3.39 4.203a.554.554 0 1 0 1.109 0c0-.57.84-2.16 2.785-3.226a.556.556 0 0 0 .277-.325.567.567 0 0 0-.043-.43Zm0 0"/><path style="stroke:none;fill-rule:nonzero;fill:#000;fill-opacity:1" d="m84.348 42.145-.676-1.692H81.09l-.672 1.692h-.43l2.153-5.395h.484l2.156 5.395Zm-3.106-2.067h2.281l-.937-2.355-.2-.57h-.007l-.195.554Zm10.567-.574h2.218v2.64H93.7l-.02-.937a1.617 1.617 0 0 1-.687.758c-.316.176-.703.262-1.168.262-.488 0-.918-.114-1.285-.336a2.231 2.231 0 0 1-.852-.973c-.199-.418-.296-.91-.296-1.469 0-.562.101-1.054.308-1.472.203-.422.489-.747.86-.973.37-.223.8-.336 1.289-.336.554 0 1.004.11 1.347.324.352.219.614.551.79 1l-.38.192a1.603 1.603 0 0 0-.628-.852c-.297-.195-.672-.293-1.13-.293-.398 0-.753.098-1.062.293-.3.195-.539.473-.707.836-.168.363-.254.789-.254 1.281 0 .746.18 1.332.535 1.762.36.43.852.644 1.485.644.39 0 .726-.078.996-.234.273-.156.472-.36.601-.613.133-.254.2-.528.2-.82v-.297h-1.832Zm8.16 2.27h3.402v.37H99.56V36.75h3.683v.371H99.97v2.086h2.586v.387h-2.586Zm12.816-5.024v5.395h-.508l-2.859-4.235-.395-.719h-.011l.027.68v4.274h-.398V36.75h.52l2.85 4.227.407.726-.016-.68V36.75Zm10.055 4.027a2 2 0 0 1-.797 1.07c-.379.255-.832.38-1.36.38-.488 0-.921-.114-1.292-.336a2.247 2.247 0 0 1-.86-.973c-.199-.418-.297-.91-.297-1.469 0-.562.098-1.054.297-1.472.203-.422.489-.747.86-.973a2.45 2.45 0 0 1 1.28-.336c1.079 0 1.778.441 2.099 1.332l-.403.184c-.125-.38-.328-.664-.601-.856-.278-.191-.633-.289-1.07-.289-.4 0-.755.098-1.063.293a1.965 1.965 0 0 0-.719.836c-.164.363-.25.789-.25 1.281 0 .489.086.914.25 1.278.164.363.398.64.703.836.301.195.66.292 1.067.292.437 0 .804-.109 1.109-.324.305-.21.516-.515.637-.902Zm5.695.996h3.41v.372h-3.816V36.75h3.68v.371h-3.274v2.086h2.594v.387h-2.594Zm17.024-5.023c.859 0 1.523.227 1.988.684.469.453.703 1.113.703 1.972 0 .883-.234 1.563-.703 2.032-.465.472-1.129.707-1.988.707h-1.7V36.75Zm.035 5.023c.719 0 1.27-.207 1.652-.613.383-.406.574-.992.574-1.754 0-.73-.191-1.293-.574-1.687-.383-.399-.934-.598-1.652-.598h-1.328v4.652Zm8.515 0h3.403v.372h-3.813V36.75h3.684v.371h-3.274v2.086h2.586v.387h-2.586Zm17.989-3.414-1.086 3.786h-.508l-1.68-5.395h.446l1.492 5.063 1.414-5.063h.472l1.415 5.07 1.511-5.07h.418l-1.687 5.395h-.5l-1.094-3.786-.297-1.168h-.012Zm9.48 3.414h3.41v.372h-3.816V36.75h3.687v.371h-3.28v2.086h2.593v.387h-2.594Zm8.68.372V36.75h1.902c.594 0 1.035.121 1.328.367.285.246.43.598.43 1.063 0 .316-.086.582-.254.8-.172.22-.418.36-.73.426v.008c.347.05.625.195.828.426.207.23.308.512.308.851 0 .465-.164.82-.496 1.075-.332.254-.8.379-1.414.379Zm.41-2.907h1.504c.879 0 1.316-.355 1.316-1.058 0-.703-.437-1.059-1.316-1.059h-1.504Zm0 2.535h1.574c.461 0 .809-.093 1.04-.28.234-.188.35-.454.35-.802 0-.355-.116-.62-.35-.804-.231-.184-.579-.278-1.04-.278h-1.574Zm17.184-5.023c.863 0 1.527.227 1.992.684.465.453.699 1.113.699 1.972 0 .883-.234 1.563-.7 2.032-.464.472-1.128.707-1.991.707h-1.7V36.75Zm.035 5.023c.722 0 1.273-.207 1.66-.613.379-.406.57-.992.57-1.754 0-.73-.191-1.293-.57-1.687-.387-.399-.938-.598-1.66-.598h-1.325v4.652Zm8.515 0h3.41v.372h-3.816V36.75h3.684v.371h-3.278v2.086h2.594v.387h-2.594Zm10.344-5.105c1.016 0 1.695.395 2.04 1.191l-.352.286c-.137-.387-.34-.665-.614-.84-.265-.176-.62-.266-1.062-.266-.317 0-.594.05-.828.152-.235.098-.41.23-.532.399a.953.953 0 0 0-.187.574c0 .203.055.375.16.512.102.136.274.254.524.351.25.094.593.18 1.027.258.703.121 1.2.293 1.496.524.293.226.437.543.437.945 0 .289-.085.547-.25.773a1.565 1.565 0 0 1-.714.512 2.817 2.817 0 0 1-1.063.188c-.562 0-1.039-.114-1.43-.336a1.704 1.704 0 0 1-.796-.953l.359-.282c.11.39.328.688.656.887.328.207.738.312 1.223.312.469 0 .851-.097 1.144-.289.301-.187.45-.453.45-.789a.788.788 0 0 0-.368-.683c-.242-.168-.66-.305-1.261-.407-.504-.09-.907-.199-1.2-.32-.292-.125-.503-.281-.632-.469-.13-.183-.192-.414-.192-.695 0-.277.078-.531.239-.766.16-.238.39-.425.687-.558.297-.14.645-.211 1.04-.211Zm7.887.082v5.395h-.406V36.75Zm7.863 2.754h2.215v2.64h-.328l-.012-.937a1.633 1.633 0 0 1-.695.758c-.313.176-.7.262-1.16.262-.493 0-.922-.114-1.293-.336a2.24 2.24 0 0 1-.844-.973c-.2-.418-.297-.91-.297-1.469 0-.562.098-1.054.3-1.472.208-.422.497-.747.864-.973.371-.223.8-.336 1.293-.336.547 0 .996.11 1.348.324.347.219.61.551.781 1l-.375.192a1.565 1.565 0 0 0-.629-.852c-.3-.195-.676-.293-1.125-.293a1.91 1.91 0 0 0-1.062.293 1.957 1.957 0 0 0-.715.836c-.164.363-.25.789-.25 1.281 0 .746.18 1.332.539 1.762.351.43.847.644 1.48.644.39 0 .719-.078.992-.234.274-.156.477-.36.61-.613.129-.254.195-.528.195-.82v-.297h-1.832Zm11.89-2.754v5.395h-.507l-2.86-4.235-.398-.719h-.012l.024.68v4.274h-.39V36.75h.515l2.851 4.227.41.726-.015-.68V36.75Zm0 0"/></svg>